<?xml version="1.0" encoding="utf-8"?>
<!-- Generator: Adobe Illustrator 18.1.0, SVG Export Plug-In . SVG Version: 6.00 Build 0)  -->
<svg version="1.1" id="Layer_1" xmlns="http://www.w3.org/2000/svg" xmlns:xlink="http://www.w3.org/1999/xlink" x="0px" y="0px"
	 viewBox="0 321.6 612 89.8" enable-background="new 0 321.6 612 89.8" xml:space="preserve">
<g>
	<polygon fill="#3B6E8F" points="190.6,345.1 207.7,345.1 227.9,367.5 248.7,345.1 265.5,345.1 236.6,375.1 268.9,408.8 
		251.5,408.8 228.2,383 204.1,408.8 187,408.8 219.5,375.1 	"/>
	<g>
		<path fill="#3B6E8F" d="M290.2,335.3l12.3-13.7v23.5h17.9v8.7h-17.9V388c0,6.4,0,11.2,8.7,11.2c3.1,0,5.6-0.3,9-1.1V409
			c-3.9,0.3-8.1,0.8-12.3,0.8c-17.4,0-17.4-8.7-17.4-18.5v-37.8h-16.8l7.6-8.7h9.3v-9.5H290.2z"/>
	</g>
	<path fill="#3B6E8F" d="M343.1,345.1h12.3v63.6h-12.3V345.1z M342.9,321.8h12.3v12.6h-12.3V321.8z"/>
	<g>
		<path fill="#3B6E8F" d="M395.3,353.8c1.1-1.1,2.2-2,3.6-3.1c4.8-3.4,13.5-7,24.4-7c17.9,0,23.8,7.6,26.9,11.5
			c3.6-3.4,11.8-11.5,31.1-11.5c10.9,0,19.1,3.4,24.1,7.3c8.7,7,8.7,15.7,8.7,23.5V409h-12.3v-32.5c0-4.5,0-9.8-2.5-14
			c-0.6-0.8-5.3-8.4-19.1-8.4c-4.5,0-9.8,0.6-15.4,3.6c-9.5,5.3-9.8,11.8-9.8,17.7v33.1h-12.6V376c0-5.9,0-12.6-6.2-17.4
			c-4.2-3.4-9.5-4.5-14.9-4.5c-9.3,0-16.8,3.6-21,7.6c-4.5,4.5-4.8,9-4.8,14.6v32.5H383v-63.4h12.6v8.4H395.3z"/>
		<path fill="#3B6E8F" d="M594.9,386.9c-1.7,3.4-3.4,6.2-7.8,9.3c-4.8,3.1-10.7,4.8-16.5,4.8c-9.5,0-18.5-3.9-23.3-9.8
			c-3.6-4.2-4.2-8.7-4.8-12.6h65.3c-0.6-20.2-15.7-35.3-39.2-35.3c-23.3,0-38.4,13.7-38.4,33.4c0,23,18.8,34.2,39,34.2
			c5.6,0,17.1-0.8,26.9-7.3c6.4-4.5,8.4-8.4,10.9-12.9L594.9,386.9z M543.3,369.2c1.7-3.6,7-16.8,26.4-16.8
			c18.5,0,23,12.9,24.7,16.8H543.3z"/>
		<path fill="#F7941E" d="M72.9,383l-14.6,15.4c-3.1,3.1-7.3,4.5-14.9,4.5H26.4c-8.4,0-14.9-5.3-14.9-12.9v-26.1
			c0-7,6.4-12.1,10.4-13.5c1.7-0.6,2.8-0.8,2.8-1.1c0-0.6-1.1-0.8-2-1.7c-1.7-0.8-4.5-2-6.4-2c-1.1-0.3-3.6,1.1-5,2.2
			c-5.9,3.9-8.4,8.7-8.4,16.5v25.8c0,11.5,9.5,21,23,21h16.5c6.7,0,14.6,0.6,22.7-7.6l14-15.1l17.1,16c0,0,6.7,6.7,18.5,6.7h25.5
			c3.1,0,3.9,0.3,3.9-0.6c0-0.8-1.4-0.8-3.1-1.4c-3.6-1.7-9.3-3.6-20.5-14c-8.1-7.6-25.2-23.3-25.2-23.3l14.6-15.4
			c3.1-3.1,7.3-4.5,14.9-4.5h17.4c8.4,0,14.9,5.3,14.9,12.9v26.1c0,7-6.4,12.1-10.4,13.5c-1.7,0.6-2.8,0.8-2.8,1.1
			c0,0.6,0.8,0.8,2,1.7c1.7,1.1,4.5,2,6.2,2.2c1.1,0,3.6-1.1,5.3-2.2c5.9-4.2,8.1-9,8.1-16.5V365c0-11.8-9.5-21-23-21h-16.5
			c-6.7,0-14.6-0.6-23,7.6l-14,15.1l-17.1-16c0,0-6.7-6.7-18.5-6.7H27.8c-2.5-0.8-3.6-1.1-3.6-0.3c0,0.8,1.4,0.8,3.1,1.4
			c3.6,1.7,9.3,3.6,20.5,14C55.8,367,72.9,383,72.9,383"/>
	</g>
</g>
</svg>
